Conversion server listening on http://0.0.0.0:3333
 - http://192.168.2.5:3333
Requires ffmpeg installed and available on PATH
Received upload: {
  originalname: 'recording.webm',
  path: 'uploads/981d80d74d018d92356e843fd4ef16fd',
  mimetype: 'video/webm',
  size: 2069763
}
Multipart fields: [Object: null prototype] {}
ffmpeg: ffmpeg version 7.1.1 Copyright (c) 2000-2025 the FFmpeg developers
ffmpeg:   built with Apple clang version 17.0.0 (clang-1700.0.13.3)
ffmpeg:   configuration: --prefix=/opt/homebrew/Cellar/ffmpeg/7.1.1_5 --enable-shared --enable-pthreads --enable-version3 --cc=clang --host-cflags= --host-ldflags='-Wl,-ld_classic' --enable-ffplay --enable-gnutls --enable-gpl --enable-libaom --enable-libaribb24 --enable-libbluray --enable-libdav1d --enable-libharfbuzz --enable-libjxl --enable-libmp3lame --enable-libopus --enable-librav1e --enable-librist --enable-librubberband --enable-libsnappy --enable-libsrt --enable-libssh --enable-libsvtav1 --enable-libtesseract --enable-libtheora --enable-libvidstab --enable-libvmaf --enable-libvorbis --enable-libvpx --enable-libwebp --enable-libx264 --enable-libx265 --enable-libxml2 --enable-libxvid --enable-lzma --enable-libfontconfig --enable-libfreetype --enable-frei0r --enable-libass --enable-libopencore-amrnb --enable-libopencore-amrwb --enable-libopenjpeg --enable-libspeex --enable-libsoxr --enable-libzmq --enable-libzimg --disable-libjack --disable-indev=jack --enable-videotoolbox --enable-audiotoolbox --enable-neon
ffmpeg:   libavutil      59. 39.100 / 59. 39.100
ffmpeg:   libavcodec     61. 19.101 / 61. 19.101
ffmpeg:   libavformat    61.  7.100 / 61.  7.100
ffmpeg:   libavdevice    61.  3.100 / 61.  3.100
ffmpeg:   libavfilter    10.  4.100 / 10.  4.100
ffmpeg:   libswscale      8.  3.100 /  8.  3.100
ffmpeg:   libswresample   5.  3.100 /  5.  3.100
ffmpeg:   libpostproc    58.  3.100 / 58.  3.100
ffmpeg: Input #0, matroska,webm, from 'uploads/981d80d74d018d92356e843fd4ef16fd':
ffmpeg:   Metadata:
ffmpeg:     encoder         : WebKit
ffmpeg:   Duration: N/A
ffmpeg: , start: 0.000000, bitrate: N/A
ffmpeg:   Stream #0:0(eng): Video: vp8, yuv420p(progressive), 5120x2880, SAR 1:1 DAR 16:9, 1k tbr, 1k tbn (default)
ffmpeg: [out#0/mp4 @ 0x11d805390] Codec AVOption b:a (set bitrate (in bits/s)) has not been used for any stream. The most likely reason is either wrong type (e.g. a video option with no video streams) or that it is a private option of some decoder which was not actually used for any stream.
ffmpeg: Stream mapping:
ffmpeg:   Stream #0:0 -> #0:0
ffmpeg:  (vp8 (native) -> h264 (libx264))
ffmpeg: Press [q] to stop, [?] for help
ffmpeg: [libx264 @ 0x11d8089f0] using SAR=1/1
ffmpeg: [libx264 @ 0x11d8089f0] frame MB size (320x180) > level limit (1620)
ffmpeg: [libx264 @ 0x11d8089f0] DPB size (1 frames, 57600 mbs) > level limit (0 frames, 8100 mbs)
ffmpeg: [libx264 @ 0x11d8089f0] MB rate (57600000) > level limit (40500)
ffmpeg: [libx264 @ 0x11d8089f0] using cpu capabilities: ARMv8 NEON
ffmpeg: [libx264 @ 0x11d8089f0] profile Constrained Baseline, level 3.0, 4:2:0, 8-bit
ffmpeg: [libx264 @ 0x11d8089f0] 
ffmpeg: 264 - core 164 r3108 31e19f9 - H.264/MPEG-4 AVC codec - Copyleft 2003-2023 - http://www.videolan.org/x264.html - options: cabac=0 ref=1 deblock=1:0:0 analyse=0x1:0x111 me=hex subme=6 psy=1 psy_rd=1.00:0.00 mixed_ref=0 me_range=16 chroma_me=1 trellis=1 8x8dct=0 cqm=0 deadzone=21,11 fast_pskip=1 chroma_qp_offset=-2 threads=21 lookahead_threads=3 sliced_threads=0 nr=0 decimate=1 interlaced=0 bluray_compat=0 constrained_intra=0 bframes=0 weightp=0 keyint=250 keyint_min=25 scenecut=40 intra_refresh=0 rc_lookahead=30 rc=crf mbtree=1 crf=23.0 qcomp=0.60 qpmin=0 qpmax=69 qpstep=4 ip_ratio=1.40 aq=1:1.00
ffmpeg: Output #0, mp4, to 'uploads/converted-1756117480684.mp4':
ffmpeg:   Metadata:
ffmpeg:     encoder         : Lavf61.7.100
ffmpeg:   Stream #0:0(eng): Video: h264 (avc1 / 0x31637661), yuv420p(tv, bt470bg/unknown/unknown, progressive), 5120x2880 [SAR 1:1 DAR 16:9], q=2-31, 1k fps, 16k tbn (default)
ffmpeg:       Metadata:
ffmpeg:         encoder         : Lavc61.19.101 libx264
ffmpeg:       Side data:
ffmpeg:         cpb: bitrate max/min/avg: 0/0/0 buffer size: 0 vbv_delay: N/A
ffmpeg: frame=    0 fps=0.0 q=0.0 size=       0KiB time=N/A bitrate=N/A speed=N/A    
ffmpeg: frame=   23 fps= 23 q=31.0 size=       0KiB time=00:00:00.42 bitrate=   0.9kbits/s speed=0.418x    
ffmpeg: frame=   89 fps= 59 q=31.0 size=    1024KiB time=00:00:01.55 bitrate=5401.8kbits/s speed=1.03x    
ffmpeg: [mp4 @ 0x11d805740] Starting second pass: moving the moov atom to the beginning of the file
ffmpeg: [out#0/mp4 @ 0x11d805390] video:1086KiB audio:0KiB subtitle:0KiB other streams:0KiB global headers:0KiB muxing overhead: 0.195015%
ffmpeg: frame=  138 fps= 83 q=-1.0 Lsize=    1088KiB time=00:00:02.40 bitrate=3710.0kbits/s speed=1.45x    
ffmpeg: [libx264 @ 0x11d8089f0] frame I:1     Avg QP:11.90  size: 56360
ffmpeg: [libx264 @ 0x11d8089f0] frame P:137   Avg QP:16.92  size:  7702
ffmpeg: [libx264 @ 0x11d8089f0] mb I  I16..4: 99.0%  0.0%  1.0%
ffmpeg: [libx264 @ 0x11d8089f0] mb P  I16..4:  9.6%  0.0%  0.0%  P16..4:  0.2%  0.0%  0.0%  0.0%  0.0%    skip:90.1%
ffmpeg: [libx264 @ 0x11d8089f0] coded y,uvDC,uvAC intra: 0.1% 0.3% 0.0% inter: 0.1% 0.2% 0.0%
ffmpeg: [libx264 @ 0x11d8089f0] i16 v,h,dc,p: 98%  2%  1%  0%
ffmpeg: [libx264 @ 0x11d8089f0] i4 v,h,dc,ddl,ddr,vr,hd,vl,hu: 24% 23% 35%  3%  4%  2%  5%  1%  2%
ffmpeg: [libx264 @ 0x11d8089f0] i8c dc,h,v,p: 99%  0%  0%  0%
ffmpeg: [libx264 @ 0x11d8089f0] kb/s:3676.21
